<svg width="24" height="24" xmlns="http://www.w3.org/2000/svg" xmlns:xlink="http://www.w3.org/1999/xlink" x="0px" y="0px" viewBox="0, 0, 400,427.9475982532751"><path d="M118.400 0.392 C 105.090 0.544,93.660 0.795,93.000 0.949 C 92.340 1.104,91.527 1.277,91.193 1.334 C 90.859 1.391,90.352 1.582,90.066 1.759 C 89.781 1.936,89.440 1.974,89.310 1.844 C 89.180 1.713,88.877 1.766,88.637 1.960 C 88.397 2.155,87.030 2.634,85.600 3.025 C 61.600 9.591,45.841 32.441,44.237 63.000 C 43.053 85.576,43.052 293.417,44.236 308.600 C 44.548 312.597,44.690 313.811,44.912 314.400 C 45.037 314.730,45.350 315.684,45.607 316.519 C 46.490 319.386,54.345 326.400,56.674 326.400 C 56.989 326.400,57.165 326.535,57.065 326.700 C 56.965 326.865,57.900 327.051,59.142 327.113 C 60.384 327.175,61.449 327.366,61.508 327.538 C 61.568 327.709,62.688 327.772,63.997 327.678 C 65.306 327.583,66.697 327.641,67.088 327.806 C 67.480 327.972,70.140 328.158,73.000 328.219 C 78.888 328.345,81.202 328.509,81.194 328.800 C 81.191 328.910,79.549 330.980,77.543 333.400 C 73.698 338.042,62.479 351.595,58.008 357.000 C 56.552 358.760,54.200 361.621,52.781 363.358 C 51.361 365.095,49.480 367.364,48.600 368.400 C 45.947 371.524,39.070 379.869,14.665 409.586 C 8.359 417.265,8.035 417.663,3.341 423.511 L 0.483 427.072 13.341 427.336 C 20.414 427.480,38.352 427.599,53.203 427.599 L 80.207 427.600 85.703 416.599 L 91.199 405.599 200.061 405.699 L 308.923 405.800 314.362 416.700 L 319.800 427.600 346.800 427.599 C 361.650 427.599,379.580 427.480,386.644 427.336 L 399.489 427.073 397.244 424.196 C 394.767 421.021,388.335 413.145,378.672 401.455 C 375.191 397.245,371.388 392.630,370.220 391.200 C 369.052 389.770,365.720 385.720,362.817 382.200 C 359.913 378.680,356.516 374.559,355.268 373.042 C 354.021 371.525,352.280 369.436,351.400 368.400 C 350.520 367.364,348.707 365.185,347.371 363.558 C 346.035 361.931,341.365 356.280,336.994 351.000 C 332.622 345.720,327.955 340.075,326.623 338.455 C 325.290 336.836,322.985 334.058,321.500 332.284 C 320.015 330.509,318.800 328.954,318.800 328.828 C 318.800 328.509,320.963 328.349,327.000 328.219 C 329.860 328.158,332.520 327.972,332.912 327.806 C 333.303 327.641,334.698 327.583,336.012 327.678 C 337.325 327.773,338.400 327.705,338.400 327.526 C 338.400 327.346,338.860 327.200,339.423 327.200 C 343.099 327.200,346.829 325.235,350.879 321.163 C 354.532 317.491,355.111 316.086,355.808 309.200 C 357.100 296.448,357.094 80.449,355.802 62.800 C 353.647 33.363,339.112 10.944,317.600 3.875 C 315.510 3.188,313.710 2.531,313.600 2.413 C 313.490 2.296,312.950 2.153,312.400 2.095 C 311.850 2.038,311.130 1.875,310.800 1.734 C 310.470 1.593,309.764 1.404,309.231 1.316 C 308.698 1.227,307.898 0.960,307.454 0.722 C 306.499 0.211,157.132 -0.050,118.400 0.392 M255.791 22.475 C 259.831 26.968,259.771 29.559,255.522 34.100 L 253.744 36.000 200.029 36.000 L 146.313 36.000 144.536 34.100 C 140.413 29.692,140.327 26.792,144.191 22.494 L 146.074 20.400 200.000 20.400 L 253.926 20.400 255.791 22.475 M255.400 62.028 C 269.283 62.045,277.887 62.197,277.400 62.417 C 276.908 62.639,278.638 62.683,281.900 62.532 C 285.338 62.373,287.200 62.428,287.200 62.688 C 287.200 62.909,287.650 63.003,288.201 62.898 C 292.761 62.026,307.498 70.191,313.091 76.689 C 318.929 83.472,324.119 94.681,324.987 102.380 C 325.025 102.721,325.172 103.270,325.314 103.600 C 325.786 104.702,326.820 112.806,326.861 115.722 C 326.883 117.305,326.923 130.210,326.950 144.400 L 327.000 170.200 324.688 173.313 C 322.269 176.569,319.900 178.404,315.739 180.244 L 313.577 181.200 199.881 181.200 L 86.185 181.200 83.137 179.669 C 78.994 177.587,77.335 176.186,74.993 172.790 L 73.000 169.900 73.029 144.250 C 73.045 130.143,73.153 117.250,73.269 115.600 C 73.681 109.738,74.242 105.026,74.787 102.848 C 75.014 101.941,75.386 100.435,75.613 99.500 C 78.167 88.981,84.464 78.101,91.238 72.502 C 94.674 69.662,98.795 67.113,99.508 67.386 C 99.802 67.499,99.946 67.436,99.829 67.246 C 99.020 65.938,112.599 62.128,116.527 62.561 C 117.667 62.687,118.330 62.657,118.000 62.495 C 117.094 62.049,160.719 61.708,198.800 61.862 C 217.390 61.938,242.860 62.012,255.400 62.028 M100.000 216.300 C 100.000 216.465,101.215 216.616,102.700 216.635 C 113.415 216.776,128.683 231.295,127.464 240.184 C 127.332 241.147,127.412 242.052,127.650 242.290 C 127.911 242.551,127.977 243.883,127.828 245.853 C 127.697 247.584,127.597 249.971,127.606 251.159 C 127.649 256.753,123.949 263.289,117.742 268.586 C 114.536 271.321,110.262 273.809,109.538 273.362 C 109.273 273.198,109.184 273.251,109.329 273.485 C 110.323 275.094,94.699 275.823,89.961 274.388 C 80.255 271.449,70.374 260.599,69.317 251.718 C 68.626 245.907,68.913 239.318,69.945 237.311 C 70.146 236.920,71.038 235.070,71.927 233.200 C 75.733 225.193,88.267 215.626,93.245 216.928 C 93.660 217.036,94.000 216.939,94.000 216.711 C 94.000 216.456,94.694 216.374,95.800 216.499 C 96.790 216.610,97.600 216.544,97.600 216.351 C 97.600 216.158,98.140 216.000,98.800 216.000 C 99.460 216.000,100.000 216.135,100.000 216.300 M256.200 220.400 L 256.200 224.600 200.000 224.600 L 143.800 224.600 143.684 220.830 C 143.620 218.757,143.660 216.821,143.772 216.529 C 143.941 216.090,153.729 216.015,200.088 216.099 L 256.200 216.200 256.200 220.400 M304.801 216.700 C 304.802 216.865,305.567 217.008,306.501 217.019 C 316.367 217.127,329.810 230.242,330.592 240.520 C 330.655 241.357,330.818 242.152,330.954 242.287 C 331.651 242.984,331.035 251.430,330.128 253.600 C 329.990 253.930,329.850 254.380,329.816 254.600 C 329.729 255.163,329.292 256.188,327.768 259.400 C 318.952 277.979,291.971 281.093,278.702 265.062 C 276.446 262.337,274.079 258.387,273.122 255.752 C 272.188 253.180,271.541 240.400,272.344 240.400 C 272.554 240.400,272.631 240.040,272.516 239.601 C 271.269 234.833,280.733 222.880,289.109 218.644 C 292.683 216.837,304.795 215.336,304.801 216.700 M256.314 271.301 L 256.427 275.603 200.114 275.501 L 143.800 275.400 143.684 271.630 C 143.620 269.557,143.660 267.621,143.772 267.329 C 143.941 266.890,153.729 266.815,200.088 266.899 L 256.200 267.000 256.314 271.301 M272.197 332.393 C 274.656 337.297,274.681 337.388,273.700 337.828 C 272.913 338.181,135.329 338.463,129.946 338.122 C 124.967 337.808,125.045 338.001,127.713 332.621 L 130.004 328.000 199.998 328.000 L 269.993 328.000 272.197 332.393 M288.597 365.096 C 290.469 368.889,292.000 372.248,292.000 372.561 C 292.000 373.247,290.835 373.256,200.000 373.255 C 116.446 373.255,108.000 373.206,108.000 372.728 C 108.000 372.296,110.750 366.388,113.274 361.400 L 114.893 358.200 200.043 358.200 L 285.193 358.200 288.597 365.096 " stroke="none" fill="#040404" fill-rule="evenodd"></path><path d="M100.300 0.295 C 101.455 0.376,103.345 0.376,104.500 0.295 C 105.655 0.214,104.710 0.148,102.400 0.148 C 100.090 0.148,99.145 0.214,100.300 0.295 M84.600 2.400 C 84.096 2.617,84.022 2.744,84.400 2.744 C 84.730 2.744,85.360 2.589,85.800 2.400 C 86.304 2.183,86.378 2.056,86.000 2.056 C 85.670 2.056,85.040 2.211,84.600 2.400 M78.813 4.691 C 78.289 5.282,78.303 5.323,78.946 5.076 C 79.342 4.924,79.741 4.800,79.833 4.800 C 79.925 4.800,80.000 4.620,80.000 4.400 C 80.000 3.812,79.481 3.939,78.813 4.691 M323.600 5.886 C 323.930 6.008,324.560 6.274,325.000 6.476 C 325.787 6.838,325.788 6.834,325.024 6.222 C 324.596 5.880,323.966 5.614,323.624 5.632 C 323.085 5.659,323.082 5.693,323.600 5.886 M65.170 12.663 L 64.200 13.725 65.500 12.976 C 66.215 12.564,66.800 12.086,66.800 11.914 C 66.800 11.304,66.128 11.613,65.170 12.663 M333.267 12.300 C 333.340 12.465,335.193 14.310,337.384 16.400 C 342.006 20.808,341.715 20.121,336.918 15.300 C 333.954 12.321,332.886 11.444,333.267 12.300 M59.923 17.900 C 58.849 19.150,58.525 19.899,59.345 19.233 C 60.016 18.688,60.990 17.200,60.676 17.200 C 60.592 17.200,60.253 17.515,59.923 17.900 M144.408 22.592 C 143.441 23.577,142.771 24.505,142.920 24.653 C 143.069 24.802,143.928 24.086,144.829 23.062 L 146.468 21.200 199.984 21.200 L 253.499 21.200 255.550 23.459 C 256.677 24.702,257.600 25.902,257.600 26.126 C 257.600 26.350,257.705 26.429,257.832 26.301 C 258.213 25.920,257.214 24.311,255.470 22.500 L 253.833 20.800 200.000 20.800 L 146.167 20.800 144.408 22.592 M342.087 21.591 C 342.365 22.036,342.729 22.400,342.896 22.400 C 343.474 22.400,343.197 21.791,342.391 21.287 C 341.641 20.819,341.619 20.841,342.087 21.591 M55.777 23.244 C 55.376 24.020,55.308 24.431,55.597 24.334 C 55.852 24.249,56.030 24.021,55.994 23.826 C 55.958 23.631,56.214 23.312,56.564 23.116 C 57.265 22.724,57.425 22.000,56.810 22.000 C 56.596 22.000,56.131 22.560,55.777 23.244 M343.443 23.367 C 343.576 23.715,343.861 24.000,344.076 24.000 C 344.602 24.000,344.273 23.091,343.675 22.892 C 343.382 22.794,343.293 22.977,343.443 23.367 M53.781 26.837 C 53.429 27.518,53.212 28.145,53.299 28.232 C 53.386 28.319,53.756 27.762,54.122 26.995 C 54.944 25.270,54.659 25.138,53.781 26.837 M345.603 26.090 C 345.601 26.250,345.959 26.970,346.399 27.690 C 346.838 28.411,347.196 28.820,347.196 28.600 C 347.195 28.380,346.837 27.660,346.400 27.000 C 345.963 26.340,345.604 25.931,345.603 26.090 M52.075 29.887 C 51.160 31.023,50.975 31.600,51.526 31.600 C 51.705 31.600,52.152 30.970,52.519 30.200 C 53.323 28.516,53.230 28.451,52.075 29.887 M142.125 30.540 C 142.502 31.533,143.910 33.202,145.389 34.408 C 146.348 35.190,146.226 34.938,144.802 33.198 C 142.245 30.073,141.769 29.601,142.125 30.540 M257.410 30.770 C 257.265 31.226,257.000 31.600,256.821 31.600 C 256.643 31.600,255.803 32.446,254.955 33.481 L 253.414 35.361 254.703 34.409 C 256.110 33.368,258.253 30.519,257.896 30.163 C 257.773 30.040,257.554 30.313,257.410 30.770 M348.592 31.732 C 348.928 32.244,349.100 32.766,348.975 32.892 C 348.849 33.017,348.939 33.239,349.173 33.384 C 349.408 33.529,349.600 33.465,349.600 33.242 C 349.600 32.548,348.689 30.800,348.327 30.800 C 348.137 30.800,348.256 31.219,348.592 31.732 M352.000 41.400 C 352.000 41.730,352.180 42.000,352.400 42.000 C 352.620 42.000,352.800 41.730,352.800 41.400 C 352.800 41.070,352.620 40.800,352.400 40.800 C 352.180 40.800,352.000 41.070,352.000 41.400 M43.709 63.200 C 43.709 64.190,43.787 64.595,43.882 64.100 C 43.978 63.605,43.978 62.795,43.882 62.300 C 43.787 61.805,43.709 62.210,43.709 63.200 M356.109 63.200 C 356.109 64.190,356.187 64.595,356.282 64.100 C 356.378 63.605,356.378 62.795,356.282 62.300 C 356.187 61.805,356.109 62.210,356.109 63.200 M131.400 62.400 C 131.547 62.638,134.071 62.800,137.624 62.800 C 141.341 62.800,143.600 62.649,143.600 62.400 C 143.600 62.150,141.259 62.000,137.376 62.000 C 133.329 62.000,131.239 62.140,131.400 62.400 M240.400 62.400 C 240.400 62.657,244.459 62.800,251.776 62.800 C 258.929 62.800,263.245 62.651,263.400 62.400 C 263.563 62.137,259.671 62.000,252.024 62.000 C 244.541 62.000,240.400 62.143,240.400 62.400 M114.800 62.800 C 114.800 63.020,115.160 63.200,115.600 63.200 C 116.040 63.200,116.400 63.020,116.400 62.800 C 116.400 62.580,116.040 62.400,115.600 62.400 C 115.160 62.400,114.800 62.580,114.800 62.800 M281.200 62.800 C 281.200 63.020,281.841 63.200,282.624 63.200 C 283.471 63.200,283.947 63.038,283.800 62.800 C 283.664 62.580,283.023 62.400,282.376 62.400 C 281.729 62.400,281.200 62.580,281.200 62.800 M287.600 63.200 C 287.600 63.420,287.971 63.600,288.424 63.600 C 288.877 63.600,289.136 63.420,289.000 63.200 C 288.864 62.980,288.493 62.800,288.176 62.800 C 287.859 62.800,287.600 62.980,287.600 63.200 M298.990 67.048 C 299.347 67.404,299.759 67.574,299.907 67.426 C 300.056 67.278,299.912 66.989,299.588 66.784 C 298.643 66.187,298.287 66.344,298.990 67.048 M96.533 69.126 C 94.089 70.700,93.889 71.117,96.200 69.818 C 98.385 68.590,99.188 67.985,98.580 68.026 C 98.371 68.040,97.450 68.535,96.533 69.126 M301.200 68.160 C 301.200 68.435,304.091 70.042,304.267 69.866 C 304.359 69.774,303.786 69.317,302.994 68.850 C 301.549 67.997,301.200 67.863,301.200 68.160 M92.424 71.907 C 90.519 73.419,87.409 76.643,85.200 79.394 C 84.659 80.069,84.664 80.105,85.255 79.771 C 85.615 79.567,86.724 78.410,87.718 77.200 C 88.712 75.990,90.334 74.370,91.322 73.600 C 92.789 72.457,94.342 70.776,93.903 70.807 C 93.847 70.811,93.181 71.306,92.424 71.907 M306.487 71.591 C 306.765 72.036,307.129 72.400,307.296 72.400 C 307.874 72.400,307.597 71.791,306.791 71.287 C 306.041 70.819,306.019 70.841,306.487 71.591 M43.337 75.000 C 43.339 76.760,43.409 77.430,43.493 76.489 C 43.578 75.549,43.577 74.109,43.491 73.289 C 43.405 72.470,43.336 73.240,43.337 75.000 M356.540 75.200 C 356.540 77.070,356.609 77.835,356.693 76.900 C 356.777 75.965,356.777 74.435,356.693 73.500 C 356.609 72.565,356.540 73.330,356.540 75.200 M308.000 72.749 C 308.000 72.967,308.540 73.530,309.200 74.000 C 310.479 74.910,310.875 74.532,309.700 73.523 C 308.621 72.596,308.000 72.314,308.000 72.749 M311.953 76.700 C 312.816 77.876,316.064 81.008,315.375 80.000 C 315.149 79.670,314.286 78.545,313.456 77.500 C 311.868 75.502,310.563 74.807,311.953 76.700 M316.615 82.700 C 317.812 84.784,318.400 85.547,318.400 85.015 C 318.400 84.589,315.991 80.800,315.720 80.800 C 315.612 80.800,316.015 81.655,316.615 82.700 M82.833 83.033 C 82.357 83.840,82.042 84.576,82.134 84.667 C 82.226 84.759,82.690 84.174,83.167 83.367 C 83.643 82.560,83.958 81.824,83.866 81.733 C 83.774 81.641,83.310 82.226,82.833 83.033 M80.914 86.248 C 81.050 86.384,80.900 86.757,80.581 87.076 C 80.261 87.396,80.000 87.852,80.000 88.090 C 80.000 88.328,80.360 88.107,80.800 87.600 C 81.704 86.558,81.820 86.000,81.133 86.000 C 80.877 86.000,80.778 86.111,80.914 86.248 M77.150 95.333 C 77.123 95.480,77.078 95.765,77.050 95.967 C 77.023 96.168,76.865 96.468,76.700 96.633 C 76.290 97.044,76.322 97.600,76.757 97.600 C 77.173 97.600,77.743 95.610,77.419 95.286 C 77.299 95.165,77.178 95.187,77.150 95.333 M42.996 190.000 C 42.996 234.110,43.043 252.155,43.100 230.100 C 43.157 208.045,43.157 171.955,43.100 149.900 C 43.043 127.845,42.996 145.890,42.996 190.000 M356.800 190.000 C 356.800 242.267,356.935 268.800,357.200 268.800 C 357.465 268.800,357.600 242.267,357.600 190.000 C 357.600 137.733,357.465 111.200,357.200 111.200 C 356.935 111.200,356.800 137.733,356.800 190.000 M326.101 115.000 C 326.105 115.880,326.187 116.193,326.283 115.695 C 326.379 115.198,326.375 114.478,326.275 114.095 C 326.175 113.713,326.096 114.120,326.101 115.000 M73.701 115.800 C 73.705 116.680,73.787 116.993,73.883 116.495 C 73.979 115.998,73.975 115.278,73.875 114.895 C 73.775 114.513,73.696 114.920,73.701 115.800 M73.377 137.000 C 73.377 143.600,73.432 146.356,73.499 143.125 C 73.566 139.893,73.566 134.493,73.499 131.125 C 73.432 127.756,73.377 130.400,73.377 137.000 M326.577 137.200 C 326.577 143.690,326.632 146.345,326.699 143.100 C 326.766 139.855,326.766 134.545,326.699 131.300 C 326.632 128.055,326.577 130.710,326.577 137.200 M73.600 169.684 C 73.600 170.173,75.295 172.838,75.485 172.648 C 75.587 172.546,75.205 171.776,74.636 170.938 C 74.066 170.100,73.600 169.536,73.600 169.684 M325.267 171.067 C 324.759 171.842,324.425 172.558,324.526 172.659 C 324.626 172.760,325.110 172.193,325.600 171.400 C 326.761 169.521,326.470 169.230,325.267 171.067 M80.400 177.567 C 80.400 177.972,81.956 178.982,82.195 178.732 C 82.265 178.660,81.889 178.277,81.361 177.881 C 80.832 177.486,80.400 177.345,80.400 177.567 M319.200 177.472 C 319.200 177.695,318.795 178.073,318.300 178.312 C 317.805 178.551,317.591 178.758,317.824 178.773 C 318.496 178.816,319.830 177.696,319.499 177.366 C 319.335 177.201,319.200 177.249,319.200 177.472 M86.138 180.494 C 86.742 180.878,313.258 180.878,313.862 180.494 C 314.116 180.332,262.878 180.200,200.000 180.200 C 137.122 180.200,85.884 180.332,86.138 180.494 M95.400 216.800 C 95.264 217.020,95.523 217.200,95.976 217.200 C 96.429 217.200,96.800 217.020,96.800 216.800 C 96.800 216.580,96.541 216.400,96.224 216.400 C 95.907 216.400,95.536 216.580,95.400 216.800 M101.200 216.800 C 101.200 217.020,101.571 217.200,102.024 217.200 C 102.477 217.200,102.736 217.020,102.600 216.800 C 102.464 216.580,102.093 216.400,101.776 216.400 C 101.459 216.400,101.200 216.580,101.200 216.800 M297.400 216.800 C 297.244 217.053,298.228 217.198,300.076 217.194 C 302.112 217.190,302.818 217.070,302.400 216.800 C 301.608 216.288,297.716 216.288,297.400 216.800 M91.000 217.600 C 90.860 217.827,90.590 217.917,90.400 217.800 C 90.210 217.683,89.942 217.770,89.804 217.993 C 89.515 218.460,90.246 218.482,91.373 218.041 C 91.868 217.847,91.986 217.639,91.701 217.462 C 91.456 217.311,91.140 217.373,91.000 217.600 M86.400 219.400 C 85.850 219.714,85.580 219.972,85.800 219.972 C 86.020 219.972,86.650 219.714,87.200 219.400 C 87.750 219.086,88.020 218.828,87.800 218.828 C 87.580 218.828,86.950 219.086,86.400 219.400 M287.500 219.826 C 285.756 220.734,285.024 221.600,286.000 221.600 C 286.220 221.600,286.400 221.423,286.400 221.208 C 286.400 220.992,287.255 220.370,288.300 219.826 C 289.345 219.282,290.020 218.837,289.800 218.837 C 289.580 218.837,288.545 219.282,287.500 219.826 M312.042 218.975 C 312.375 219.308,316.000 220.771,316.000 220.572 C 316.000 220.462,315.175 220.018,314.167 219.586 C 312.379 218.820,311.687 218.621,312.042 218.975 M113.083 220.769 C 114.031 221.660,114.400 221.799,114.400 221.264 C 114.400 221.080,113.905 220.705,113.300 220.433 L 112.200 219.937 113.083 220.769 M82.403 221.597 C 81.894 222.039,81.325 222.400,81.139 222.400 C 80.952 222.400,80.800 222.580,80.800 222.800 C 80.800 223.020,80.935 223.194,81.100 223.186 C 81.619 223.161,83.779 221.246,83.548 221.015 C 83.427 220.894,82.912 221.156,82.403 221.597 M316.400 221.167 C 316.400 221.495,318.146 222.800,318.586 222.800 C 318.704 222.800,318.800 222.620,318.800 222.400 C 318.800 222.180,318.530 222.000,318.200 222.000 C 317.870 222.000,317.600 221.839,317.600 221.643 C 317.600 221.446,317.330 221.182,317.000 221.055 C 316.670 220.929,316.400 220.979,316.400 221.167 M116.400 223.184 C 117.390 224.054,118.380 224.768,118.600 224.771 C 118.820 224.774,118.190 224.067,117.200 223.200 C 116.210 222.333,115.220 221.619,115.000 221.613 C 114.780 221.607,115.410 222.314,116.400 223.184 M280.870 224.972 C 279.627 226.166,278.701 227.234,278.812 227.346 C 278.924 227.457,280.085 226.480,281.393 225.174 C 284.372 222.200,283.931 222.030,280.870 224.972 M78.362 224.908 C 76.247 226.856,75.332 228.000,75.891 228.000 C 76.105 228.000,77.219 226.920,78.367 225.600 C 79.516 224.280,80.398 223.204,80.327 223.208 C 80.257 223.213,79.373 223.978,78.362 224.908 M321.379 225.280 C 323.331 227.575,324.799 228.683,324.044 227.291 C 323.678 226.617,322.401 225.382,320.420 223.788 C 319.881 223.355,320.313 224.026,321.379 225.280 M119.575 225.800 C 120.162 226.924,122.347 229.387,122.564 229.169 C 122.663 229.070,121.938 228.091,120.951 226.994 C 119.965 225.897,119.346 225.360,119.575 225.800 M73.223 231.450 C 72.753 232.248,72.452 232.986,72.556 233.089 C 72.659 233.193,73.120 232.540,73.580 231.639 C 74.615 229.611,74.381 229.488,73.223 231.450 M326.445 231.700 C 326.948 232.745,327.518 233.600,327.712 233.600 C 327.906 233.600,327.662 232.925,327.169 232.100 C 325.788 229.790,325.431 229.593,326.445 231.700 M123.200 231.200 C 123.200 231.420,123.376 231.600,123.590 231.600 C 123.805 231.600,124.337 232.275,124.773 233.100 C 125.208 233.925,125.573 234.458,125.582 234.284 C 125.617 233.669,123.978 230.800,123.592 230.800 C 123.376 230.800,123.200 230.980,123.200 231.200 M126.800 239.800 C 126.800 240.396,126.972 240.741,127.200 240.600 C 127.420 240.464,127.600 240.104,127.600 239.800 C 127.600 239.496,127.420 239.136,127.200 239.000 C 126.972 238.859,126.800 239.204,126.800 239.800 M272.252 243.700 C 271.882 245.082,271.955 246.725,272.400 247.000 C 272.648 247.153,272.800 246.404,272.800 245.024 C 272.800 242.644,272.639 242.256,272.252 243.700 M330.528 246.000 C 330.528 247.430,330.601 248.015,330.689 247.300 C 330.778 246.585,330.778 245.415,330.689 244.700 C 330.601 243.985,330.528 244.570,330.528 246.000 M272.154 249.376 C 272.032 249.692,272.123 250.277,272.354 250.676 C 272.712 251.291,272.778 251.205,272.788 250.100 C 272.801 248.729,272.524 248.412,272.154 249.376 M126.806 251.900 C 126.811 252.757,126.898 252.868,127.200 252.400 C 127.706 251.617,127.706 250.800,127.200 250.800 C 126.980 250.800,126.803 251.295,126.806 251.900 M70.056 253.200 C 70.056 253.530,70.211 254.160,70.400 254.600 C 70.617 255.104,70.744 255.178,70.744 254.800 C 70.744 254.470,70.589 253.840,70.400 253.400 C 70.183 252.896,70.056 252.822,70.056 253.200 M71.200 256.581 C 71.200 257.112,72.180 258.800,72.488 258.800 C 72.685 258.800,72.736 258.980,72.600 259.200 C 72.464 259.420,72.543 259.600,72.776 259.600 C 73.335 259.600,73.318 259.474,72.526 257.814 C 71.961 256.629,71.200 255.922,71.200 256.581 M125.265 257.817 C 124.595 259.288,124.723 259.602,125.447 258.265 C 125.786 257.640,125.988 257.054,125.896 256.963 C 125.805 256.871,125.521 257.256,125.265 257.817 M123.216 261.275 C 122.372 262.181,122.168 262.800,122.714 262.800 C 122.886 262.800,123.346 262.260,123.736 261.600 C 124.572 260.185,124.356 260.051,123.216 261.275 M73.625 261.000 C 73.625 261.220,73.890 261.749,74.213 262.176 C 74.536 262.604,74.800 262.773,74.800 262.553 C 74.800 262.333,74.536 261.804,74.213 261.376 C 73.890 260.949,73.625 260.780,73.625 261.000 M276.000 260.938 C 276.000 261.014,276.450 261.599,277.000 262.238 C 278.126 263.547,278.334 263.282,277.354 261.786 C 276.812 260.959,276.000 260.450,276.000 260.938 M120.646 264.646 C 120.028 265.421,119.591 266.124,119.676 266.209 C 119.760 266.294,120.335 265.729,120.954 264.954 C 121.572 264.179,122.009 263.476,121.924 263.391 C 121.840 263.306,121.265 263.871,120.646 264.646 M323.883 264.012 C 323.511 264.445,323.364 264.800,323.555 264.800 C 323.995 264.800,324.974 263.641,324.736 263.402 C 324.638 263.304,324.254 263.579,323.883 264.012 M278.400 263.988 C 278.400 264.477,283.286 269.247,283.534 269.000 C 283.673 268.860,282.575 267.620,281.094 266.244 C 279.612 264.868,278.400 263.853,278.400 263.988 M117.404 267.596 C 116.774 268.254,116.341 268.874,116.441 268.975 C 116.695 269.229,119.200 267.228,119.200 266.771 C 119.200 266.094,118.563 266.386,117.404 267.596 M172.100 267.500 C 187.445 267.558,212.555 267.558,227.900 267.500 C 243.245 267.442,230.690 267.394,200.000 267.394 C 169.310 267.394,156.755 267.442,172.100 267.500 M80.000 268.289 C 80.000 268.792,81.143 269.790,81.412 269.521 C 81.518 269.415,81.244 269.002,80.802 268.602 C 80.361 268.203,80.000 268.062,80.000 268.289 M319.083 268.812 C 318.711 269.245,318.564 269.600,318.755 269.600 C 319.195 269.600,320.174 268.441,319.936 268.202 C 319.838 268.104,319.454 268.379,319.083 268.812 M112.800 271.200 C 112.250 271.630,111.980 271.982,112.200 271.982 C 112.420 271.982,113.050 271.630,113.600 271.200 C 114.150 270.770,114.420 270.418,114.200 270.418 C 113.980 270.418,113.350 270.770,112.800 271.200 M285.800 270.697 C 286.567 271.458,290.000 273.273,290.000 272.918 C 290.000 272.721,289.145 272.123,288.100 271.589 C 285.630 270.327,285.298 270.198,285.800 270.697 M84.400 271.580 C 84.950 272.021,85.661 272.386,85.980 272.391 C 86.752 272.403,86.107 271.876,84.600 271.265 L 83.400 270.778 84.400 271.580 M314.800 271.600 C 314.030 272.022,313.670 272.370,314.000 272.374 C 314.330 272.379,315.050 272.030,315.600 271.600 C 316.857 270.617,316.596 270.617,314.800 271.600 M290.400 273.157 C 290.400 273.601,291.631 274.103,291.946 273.788 C 292.073 273.661,291.912 273.389,291.588 273.184 C 290.840 272.711,290.400 272.701,290.400 273.157 M311.600 273.224 C 311.600 273.457,311.420 273.536,311.200 273.400 C 310.980 273.264,310.800 273.343,310.800 273.576 C 310.800 274.067,310.907 274.087,311.767 273.757 C 312.465 273.489,312.633 272.800,312.000 272.800 C 311.780 272.800,311.600 272.991,311.600 273.224 M356.528 299.200 C 356.528 300.630,356.601 301.215,356.689 300.500 C 356.778 299.785,356.778 298.615,356.689 297.900 C 356.601 297.185,356.528 297.770,356.528 299.200 M43.328 299.600 C 43.328 301.030,43.401 301.615,43.489 300.900 C 43.578 300.185,43.578 299.015,43.489 298.300 C 43.401 297.585,43.328 298.170,43.328 299.600 M44.805 316.800 C 44.805 317.886,50.859 324.874,51.363 324.370 C 51.467 324.266,50.307 322.907,48.784 321.351 C 47.262 319.795,45.743 317.999,45.410 317.361 C 45.077 316.722,44.805 316.470,44.805 316.800 M354.504 317.484 C 354.231 318.066,354.082 318.615,354.172 318.705 C 354.412 318.946,355.273 317.218,355.126 316.791 C 355.057 316.590,354.777 316.902,354.504 317.484 M350.789 321.811 C 349.378 323.235,348.398 324.399,348.612 324.398 C 349.071 324.396,353.746 319.612,353.514 319.381 C 353.427 319.293,352.200 320.387,350.789 321.811 M52.400 324.996 C 52.400 325.270,54.849 326.484,55.032 326.301 C 55.119 326.214,54.562 325.844,53.795 325.478 C 53.028 325.112,52.400 324.895,52.400 324.996 M346.000 325.600 C 345.230 326.022,344.780 326.366,345.000 326.366 C 345.220 326.366,346.030 326.022,346.800 325.600 C 347.570 325.178,348.020 324.834,347.800 324.834 C 347.580 324.834,346.770 325.178,346.000 325.600 M62.400 328.000 C 62.400 328.220,62.805 328.397,63.300 328.394 C 64.028 328.389,64.085 328.314,63.600 328.000 C 62.824 327.499,62.400 327.499,62.400 328.000 M336.400 328.000 C 335.915 328.314,335.972 328.389,336.700 328.394 C 337.195 328.397,337.600 328.220,337.600 328.000 C 337.600 327.499,337.176 327.499,336.400 328.000 M70.105 328.687 C 70.714 328.779,71.614 328.777,72.105 328.682 C 72.597 328.587,72.100 328.511,71.000 328.514 C 69.900 328.517,69.497 328.595,70.105 328.687 M130.000 328.700 C 130.000 328.865,161.500 329.000,200.000 329.000 C 238.500 329.000,270.000 328.865,270.000 328.700 C 270.000 328.535,238.500 328.400,200.000 328.400 C 161.500 328.400,130.000 328.535,130.000 328.700 M328.105 328.687 C 328.714 328.779,329.614 328.777,330.105 328.682 C 330.597 328.587,330.100 328.511,329.000 328.514 C 327.900 328.517,327.497 328.595,328.105 328.687 M79.462 329.531 C 78.728 330.343,78.617 330.800,79.154 330.800 C 79.349 330.800,79.803 330.350,80.163 329.800 C 80.922 328.641,80.436 328.455,79.462 329.531 M319.693 329.600 C 320.198 330.408,320.800 330.669,320.800 330.080 C 320.800 329.664,319.933 328.800,319.517 328.800 C 319.339 328.800,319.418 329.160,319.693 329.600 M76.500 333.374 C 75.565 334.342,74.800 335.239,74.800 335.367 C 74.800 336.043,75.590 335.385,76.922 333.600 C 78.751 331.151,78.682 331.114,76.500 333.374 M323.419 334.173 C 324.083 335.186,324.800 335.536,324.800 334.846 C 324.800 334.651,324.338 334.189,323.773 333.819 L 322.747 333.147 323.419 334.173 M150.526 337.900 C 154.666 337.965,161.326 337.965,165.326 337.899 C 169.327 337.834,165.940 337.781,157.800 337.781 C 149.660 337.781,146.387 337.834,150.526 337.900 M234.700 337.899 C 238.715 337.965,245.285 337.965,249.300 337.899 C 253.315 337.834,250.030 337.781,242.000 337.781 C 233.970 337.781,230.685 337.834,234.700 337.899 M327.819 339.373 C 328.189 339.938,328.651 340.400,328.846 340.400 C 329.536 340.400,329.186 339.683,328.173 339.019 L 327.147 338.347 327.819 339.373 M71.206 339.582 C 70.659 340.002,70.332 340.466,70.479 340.613 C 70.840 340.973,71.505 340.524,72.012 339.578 C 72.524 338.622,72.455 338.622,71.206 339.582 M329.972 341.800 C 330.560 342.917,332.803 345.453,332.788 344.985 C 332.781 344.773,332.050 343.790,331.163 342.800 C 330.276 341.810,329.740 341.360,329.972 341.800 M68.203 343.422 C 67.382 344.424,66.791 345.324,66.888 345.422 C 67.053 345.586,69.061 343.253,69.749 342.100 C 70.383 341.037,69.631 341.680,68.203 343.422 M333.600 346.276 C 333.600 346.496,333.960 347.002,334.400 347.400 C 334.840 347.798,335.200 347.944,335.200 347.724 C 335.200 347.504,334.840 346.998,334.400 346.600 C 333.960 346.202,333.600 346.056,333.600 346.276 M64.998 347.202 C 63.928 348.384,64.501 348.570,65.601 347.398 C 66.117 346.849,66.356 346.400,66.132 346.400 C 65.907 346.400,65.397 346.761,64.998 347.202 M335.944 349.078 C 336.454 350.050,337.200 350.649,337.200 350.086 C 337.200 349.887,336.814 349.381,336.342 348.962 C 335.490 348.205,335.487 348.206,335.944 349.078 M63.062 349.531 C 62.333 350.337,62.172 350.988,62.798 350.601 C 63.215 350.343,64.139 348.800,63.876 348.800 C 63.792 348.800,63.426 349.129,63.062 349.531 M338.399 352.198 C 338.914 352.748,339.425 353.109,339.532 353.001 C 339.798 352.735,338.379 351.200,337.868 351.200 C 337.644 351.200,337.883 351.649,338.399 352.198 M59.803 353.422 C 57.764 355.911,58.215 356.046,60.337 353.582 C 61.276 352.492,61.876 351.600,61.670 351.600 C 61.465 351.600,60.625 352.420,59.803 353.422 M340.000 353.902 C 340.000 354.122,340.270 354.526,340.600 354.800 C 340.935 355.078,341.200 355.121,341.200 354.898 C 341.200 354.678,340.930 354.274,340.600 354.000 C 340.265 353.722,340.000 353.679,340.000 353.902 M342.249 356.945 C 343.009 357.987,343.600 358.294,343.600 357.646 C 343.600 357.451,343.127 356.982,342.549 356.604 L 341.499 355.915 342.249 356.945 M56.900 357.070 C 56.405 357.415,56.000 357.856,56.000 358.049 C 56.000 358.686,56.589 358.391,57.319 357.387 C 58.149 356.246,58.117 356.221,56.900 357.070 M344.000 358.676 C 344.000 358.896,344.360 359.402,344.800 359.800 C 345.240 360.198,345.600 360.344,345.600 360.124 C 345.600 359.904,345.240 359.398,344.800 359.000 C 344.360 358.602,344.000 358.456,344.000 358.676 M54.919 359.290 C 54.012 360.462,53.956 360.937,54.823 360.111 C 55.336 359.622,55.656 359.123,55.535 359.001 C 55.413 358.880,55.136 359.010,54.919 359.290 M113.843 360.633 C 113.467 361.611,113.549 361.708,114.200 361.057 C 114.880 360.377,114.967 360.000,114.443 360.000 C 114.246 360.000,113.976 360.285,113.843 360.633 M346.624 362.111 C 347.051 362.696,347.535 363.181,347.700 363.187 C 348.311 363.213,347.944 362.577,346.911 361.824 L 345.848 361.048 346.624 362.111 M52.052 362.871 C 50.517 364.372,49.771 365.600,50.395 365.600 C 50.627 365.600,51.022 365.150,51.273 364.600 C 51.523 364.050,51.859 363.600,52.018 363.600 C 52.178 363.600,52.603 363.150,52.963 362.600 C 53.831 361.276,53.619 361.339,52.052 362.871 M348.400 364.400 C 348.823 365.190,349.600 365.501,349.600 364.880 C 349.600 364.459,348.731 363.600,348.306 363.600 C 348.122 363.600,348.165 363.960,348.400 364.400 M48.598 367.202 C 48.198 367.644,47.966 368.099,48.082 368.215 C 48.197 368.330,48.590 367.969,48.955 367.412 C 49.752 366.196,49.593 366.102,48.598 367.202 M110.420 367.961 C 109.960 368.863,109.734 369.600,109.918 369.600 C 110.320 369.600,111.714 366.781,111.445 366.512 C 111.341 366.408,110.880 367.060,110.420 367.961 M288.800 367.381 C 288.800 367.921,289.782 369.600,290.098 369.600 C 290.301 369.600,290.362 369.375,290.234 369.100 C 290.105 368.825,289.889 368.285,289.754 367.900 C 289.538 367.289,288.800 366.887,288.800 367.381 M352.480 369.270 C 352.804 369.757,353.296 370.232,353.573 370.324 C 354.357 370.586,353.372 368.951,352.557 368.639 C 351.955 368.408,351.948 368.469,352.480 369.270 M46.237 369.800 C 45.876 370.350,45.738 370.800,45.929 370.800 C 46.323 370.800,47.600 369.477,47.600 369.069 C 47.600 368.462,46.850 368.865,46.237 369.800 M108.849 371.052 C 108.586 371.630,108.450 372.184,108.549 372.282 C 108.647 372.380,108.846 372.087,108.990 371.630 C 109.135 371.174,109.422 370.800,109.627 370.800 C 109.832 370.800,110.000 370.620,110.000 370.400 C 110.000 369.628,109.323 370.011,108.849 371.052 M290.428 370.200 C 290.428 370.420,290.686 371.050,291.000 371.600 C 291.314 372.150,291.572 372.420,291.572 372.200 C 291.572 371.980,291.314 371.350,291.000 370.800 C 290.686 370.250,290.428 369.980,290.428 370.200 M355.006 372.112 C 355.392 372.724,355.809 373.124,355.932 373.001 C 356.055 372.878,355.739 372.378,355.230 371.889 L 354.304 371.000 355.006 372.112 M43.720 373.100 C 43.104 373.925,42.330 374.819,42.000 375.087 C 41.670 375.355,41.595 375.580,41.833 375.587 C 42.218 375.599,44.157 373.429,44.949 372.100 C 45.593 371.019,44.780 371.681,43.720 373.100 M111.700 372.696 C 112.965 372.775,115.035 372.775,116.300 372.696 C 117.565 372.616,116.530 372.551,114.000 372.551 C 111.470 372.551,110.435 372.616,111.700 372.696 M283.516 372.697 C 284.899 372.775,287.059 372.774,288.316 372.695 C 289.572 372.616,288.440 372.552,285.800 372.553 C 283.160 372.553,282.132 372.618,283.516 372.697 M356.400 373.889 C 356.400 374.392,357.543 375.390,357.812 375.121 C 357.918 375.015,357.644 374.602,357.202 374.202 C 356.761 373.803,356.400 373.662,356.400 373.889 M359.006 376.912 C 359.392 377.524,359.809 377.924,359.932 377.801 C 360.055 377.678,359.739 377.178,359.230 376.689 L 358.304 375.800 359.006 376.912 M40.262 377.131 C 39.533 377.937,39.372 378.588,39.998 378.201 C 40.415 377.943,41.339 376.400,41.076 376.400 C 40.992 376.400,40.626 376.729,40.262 377.131 M360.400 378.675 C 360.400 379.120,361.935 380.624,362.124 380.364 C 362.190 380.274,361.829 379.766,361.322 379.237 C 360.815 378.707,360.400 378.454,360.400 378.675 M38.114 379.880 C 37.627 380.386,37.374 380.800,37.552 380.800 C 37.942 380.800,39.398 379.245,39.164 379.077 C 39.074 379.013,38.601 379.374,38.114 379.880 M36.200 382.000 C 35.799 382.443,35.562 382.895,35.672 383.005 C 35.782 383.115,36.199 382.843,36.600 382.400 C 37.001 381.957,37.238 381.505,37.128 381.395 C 37.018 381.285,36.601 381.557,36.200 382.000 M362.817 381.476 C 362.826 381.654,363.567 382.610,364.463 383.600 L 366.093 385.400 364.841 383.520 C 363.612 381.674,362.783 380.838,362.817 381.476 M367.081 386.987 C 367.806 387.983,368.400 388.287,368.400 387.662 C 368.400 387.265,367.068 386.000,366.650 386.000 C 366.492 386.000,366.686 386.444,367.081 386.987 M31.862 387.131 C 31.128 387.943,31.017 388.400,31.554 388.400 C 31.749 388.400,32.203 387.950,32.563 387.400 C 33.322 386.241,32.836 386.055,31.862 387.131 M368.800 388.532 C 368.800 388.987,371.735 392.800,372.085 392.800 C 372.639 392.800,372.422 391.983,371.804 391.746 C 371.477 391.621,370.667 390.781,370.004 389.880 C 369.342 388.979,368.800 388.373,368.800 388.532 M28.508 391.462 C 27.841 391.732,25.527 395.200,26.014 395.200 C 26.226 395.200,26.400 395.039,26.400 394.842 C 26.400 394.645,26.857 394.060,27.416 393.542 C 28.285 392.737,29.462 391.135,29.114 391.232 C 29.051 391.249,28.778 391.353,28.508 391.462 M372.813 393.456 C 372.831 393.944,373.957 395.376,374.161 395.171 C 374.255 395.077,373.987 394.575,373.566 394.056 C 373.145 393.536,372.806 393.266,372.813 393.456 M23.896 397.016 C 22.672 398.152,22.520 398.482,23.376 398.154 C 23.862 397.967,25.442 396.000,25.105 396.000 C 25.043 396.000,24.499 396.457,23.896 397.016 M375.163 396.731 C 375.409 397.190,375.833 397.708,376.105 397.883 C 376.377 398.057,376.793 398.549,377.029 398.976 C 377.264 399.403,377.675 399.825,377.942 399.914 C 378.620 400.140,376.566 397.192,375.550 396.480 C 374.764 395.930,374.742 395.944,375.163 396.731 M21.003 400.622 C 18.982 403.089,19.376 403.188,21.533 400.755 C 22.486 399.680,23.093 398.800,22.881 398.800 C 22.669 398.800,21.825 399.620,21.003 400.622 M379.144 401.478 C 379.654 402.450,380.400 403.049,380.400 402.486 C 380.400 402.287,380.014 401.781,379.542 401.362 C 378.690 400.605,378.687 400.606,379.144 401.478 M17.798 404.402 C 16.728 405.584,17.301 405.770,18.401 404.598 C 18.917 404.049,19.156 403.600,18.932 403.600 C 18.707 403.600,18.197 403.961,17.798 404.402 M382.463 405.582 C 383.402 406.672,384.242 407.492,384.330 407.404 C 384.567 407.167,381.566 403.600,381.130 403.600 C 380.924 403.600,381.524 404.492,382.463 405.582 M91.029 406.629 C 90.328 407.329,90.203 408.000,90.773 408.000 C 90.978 408.000,91.260 407.640,91.400 407.200 C 91.653 406.403,92.005 406.400,200.000 406.400 C 307.995 406.400,308.347 406.403,308.600 407.200 C 308.740 407.640,309.022 408.000,309.227 408.000 C 309.706 408.000,309.697 407.729,309.186 406.774 C 308.602 405.682,92.119 405.538,91.029 406.629 M14.006 409.182 C 13.459 409.602,13.114 410.047,13.238 410.171 C 13.362 410.295,13.886 409.948,14.401 409.398 C 15.517 408.211,15.372 408.132,14.006 409.182 M88.787 411.289 C 88.055 412.878,87.038 414.793,86.528 415.545 C 85.549 416.986,85.375 417.600,85.944 417.600 C 86.133 417.600,87.153 415.710,88.209 413.400 C 89.266 411.090,90.281 409.200,90.465 409.200 C 90.649 409.200,90.800 409.020,90.800 408.800 C 90.800 407.686,89.980 408.700,88.787 411.289 M309.624 408.458 C 309.543 409.332,313.879 417.854,314.228 417.505 C 314.447 417.286,312.953 414.011,312.446 413.600 C 312.311 413.490,311.626 412.230,310.924 410.800 C 310.222 409.370,309.637 408.316,309.624 408.458 M385.568 409.344 C 386.101 409.923,386.614 410.320,386.708 410.225 C 386.995 409.938,386.406 409.231,385.478 408.748 C 384.641 408.313,384.645 408.340,385.568 409.344 M11.800 411.600 C 11.399 412.043,11.162 412.495,11.272 412.605 C 11.382 412.715,11.799 412.443,12.200 412.000 C 12.601 411.557,12.838 411.105,12.728 410.995 C 12.618 410.885,12.201 411.157,11.800 411.600 M387.200 411.076 C 387.200 411.296,387.560 411.802,388.000 412.200 C 388.440 412.598,388.800 412.744,388.800 412.524 C 388.800 412.304,388.440 411.798,388.000 411.400 C 387.560 411.002,387.200 410.856,387.200 411.076 M389.427 414.059 C 389.852 414.641,390.347 415.028,390.527 414.919 C 390.706 414.809,390.796 414.691,390.727 414.656 C 390.657 414.620,390.162 414.233,389.627 413.796 L 388.655 413.000 389.427 414.059 M8.080 416.080 C 7.816 416.344,7.600 416.704,7.600 416.880 C 7.600 417.469,8.202 417.208,8.707 416.400 C 9.254 415.524,8.845 415.315,8.080 416.080 M391.402 416.402 C 391.802 416.844,392.215 417.118,392.321 417.012 C 392.590 416.743,391.592 415.600,391.089 415.600 C 390.862 415.600,391.003 415.961,391.402 416.402 M5.300 419.820 C 3.570 421.663,3.355 422.000,3.915 422.000 C 4.088 422.000,4.901 421.100,5.722 420.000 C 7.563 417.534,7.480 417.499,5.300 419.820 M83.987 420.889 C 83.255 422.478,82.238 424.393,81.728 425.145 C 80.749 426.586,80.575 427.200,81.144 427.200 C 81.333 427.200,82.353 425.310,83.409 423.000 C 84.466 420.690,85.481 418.800,85.665 418.800 C 85.849 418.800,86.000 418.620,86.000 418.400 C 86.000 417.286,85.180 418.300,83.987 420.889 M314.419 418.058 C 314.353 418.954,318.681 427.452,319.028 427.105 C 319.291 426.842,317.680 423.521,317.112 423.155 C 316.903 423.021,316.773 422.841,316.823 422.755 C 316.873 422.670,316.357 421.520,315.676 420.200 C 314.995 418.880,314.430 417.916,314.419 418.058 M395.200 421.200 C 395.623 421.990,396.400 422.301,396.400 421.680 C 396.400 421.259,395.531 420.400,395.106 420.400 C 394.922 420.400,394.965 420.760,395.200 421.200 " stroke="none" fill="#d0d0d0" fill-rule="evenodd"></path><path d="M108.917 0.297 C 110.411 0.374,112.751 0.374,114.117 0.296 C 115.482 0.218,114.260 0.155,111.400 0.155 C 108.540 0.156,107.422 0.220,108.917 0.297 M65.150 13.111 C 64.572 13.461,63.884 14.094,63.620 14.517 C 63.326 14.988,63.772 14.778,64.770 13.976 C 66.879 12.281,67.011 11.981,65.150 13.111 M60.765 17.300 C 60.511 17.795,59.829 18.733,59.251 19.385 C 58.673 20.036,58.522 20.324,58.915 20.023 C 60.024 19.176,62.118 16.400,61.648 16.400 C 61.417 16.400,61.020 16.805,60.765 17.300 M339.583 18.900 C 341.241 20.666,341.600 20.984,341.600 20.683 C 341.600 20.619,340.745 19.764,339.700 18.783 L 337.800 17.000 339.583 18.900 M173.100 20.700 C 187.895 20.758,212.105 20.758,226.900 20.700 C 241.695 20.642,229.590 20.594,200.000 20.594 C 170.410 20.594,158.305 20.642,173.100 20.700 M254.401 34.599 C 253.965 35.124,247.291 35.210,200.052 35.300 L 146.200 35.403 200.038 35.501 C 253.431 35.599,253.882 35.593,254.600 34.800 C 254.998 34.360,255.228 34.000,255.111 34.000 C 254.994 34.000,254.674 34.269,254.401 34.599 M123.200 62.400 C 123.200 62.641,124.875 62.800,127.424 62.800 C 130.137 62.800,131.559 62.657,131.400 62.400 C 131.262 62.177,129.396 62.000,127.176 62.000 C 124.792 62.000,123.200 62.160,123.200 62.400 M263.400 62.400 C 263.242 62.655,264.463 62.800,266.776 62.800 C 268.925 62.800,270.400 62.637,270.400 62.400 C 270.400 62.165,269.008 62.000,267.024 62.000 C 265.167 62.000,263.536 62.180,263.400 62.400 M283.800 62.800 C 283.936 63.020,284.307 63.200,284.624 63.200 C 284.941 63.200,285.200 63.020,285.200 62.800 C 285.200 62.580,284.829 62.400,284.376 62.400 C 283.923 62.400,283.664 62.580,283.800 62.800 M291.600 63.734 C 291.600 63.837,292.181 64.124,292.891 64.372 C 293.601 64.619,294.006 64.657,293.791 64.456 C 293.335 64.029,291.600 63.458,291.600 63.734 M87.651 76.191 C 86.743 77.176,86.000 78.106,86.000 78.258 C 86.000 78.409,86.059 78.458,86.132 78.367 C 86.204 78.275,87.037 77.345,87.983 76.300 C 88.928 75.255,89.612 74.400,89.502 74.400 C 89.392 74.400,88.559 75.206,87.651 76.191 M43.328 80.400 C 43.328 81.830,43.401 82.415,43.489 81.700 C 43.578 80.985,43.578 79.815,43.489 79.100 C 43.401 78.385,43.328 78.970,43.328 80.400 M356.528 80.800 C 356.528 82.230,356.601 82.815,356.689 82.100 C 356.778 81.385,356.778 80.215,356.689 79.500 C 356.601 78.785,356.528 79.370,356.528 80.800 M321.644 92.409 C 321.900 93.174,322.270 93.976,322.465 94.191 C 322.661 94.406,322.612 93.956,322.356 93.191 C 322.100 92.426,321.730 91.624,321.535 91.409 C 321.339 91.194,321.388 91.644,321.644 92.409 M73.314 123.400 C 73.317 124.500,73.395 124.903,73.487 124.295 C 73.579 123.686,73.577 122.786,73.482 122.295 C 73.387 121.803,73.311 122.300,73.314 123.400 M326.509 124.000 C 326.509 124.990,326.587 125.395,326.682 124.900 C 326.778 124.405,326.778 123.595,326.682 123.100 C 326.587 122.605,326.509 123.010,326.509 124.000 M326.974 137.200 C 326.974 142.810,327.030 145.105,327.099 142.300 C 327.168 139.495,327.168 134.905,327.099 132.100 C 327.030 129.295,326.974 131.590,326.974 137.200 M72.967 136.000 C 72.967 140.290,73.026 142.045,73.098 139.900 C 73.170 137.755,73.170 134.245,73.098 132.100 C 73.026 129.955,72.967 131.710,72.967 136.000 M73.346 152.600 C 73.347 154.800,73.414 155.649,73.495 154.487 C 73.576 153.324,73.576 151.524,73.493 150.487 C 73.411 149.449,73.345 150.400,73.346 152.600 M326.548 152.800 C 326.548 155.110,326.614 156.055,326.695 154.900 C 326.776 153.745,326.776 151.855,326.695 150.700 C 326.614 149.545,326.548 150.490,326.548 152.800 M77.459 175.563 C 78.307 176.423,79.064 177.064,79.143 176.987 C 79.336 176.799,76.597 174.000,76.219 174.000 C 76.054 174.000,76.612 174.703,77.459 175.563 M322.325 175.200 C 321.746 175.860,321.406 176.400,321.570 176.400 C 321.734 176.400,322.349 175.860,322.937 175.200 C 323.525 174.540,323.865 174.000,323.692 174.000 C 323.519 174.000,322.904 174.540,322.325 175.200 M85.600 180.558 C 87.126 181.494,312.874 181.494,314.400 180.558 C 314.950 180.221,315.040 180.092,314.600 180.272 C 313.554 180.701,86.446 180.701,85.400 180.272 C 84.960 180.092,85.050 180.221,85.600 180.558 M144.400 216.400 C 144.400 216.665,163.192 216.800,199.976 216.800 C 236.596 216.800,255.637 216.664,255.800 216.400 C 255.964 216.134,237.337 216.000,200.224 216.000 C 163.275 216.000,144.400 216.135,144.400 216.400 M302.400 216.800 C 303.176 217.301,303.600 217.301,303.600 216.800 C 303.600 216.580,303.195 216.403,302.700 216.406 C 301.972 216.411,301.915 216.486,302.400 216.800 M172.100 224.300 C 187.445 224.358,212.555 224.358,227.900 224.300 C 243.245 224.242,230.690 224.194,200.000 224.194 C 169.310 224.194,156.755 224.242,172.100 224.300 M272.273 242.153 C 272.123 242.545,272.011 243.166,272.025 243.533 C 272.042 243.975,272.181 243.874,272.437 243.234 C 272.649 242.703,272.761 242.082,272.685 241.854 C 272.609 241.627,272.424 241.761,272.273 242.153 M69.309 246.000 C 69.309 246.990,69.387 247.395,69.482 246.900 C 69.578 246.405,69.578 245.595,69.482 245.100 C 69.387 244.605,69.309 245.010,69.309 246.000 M330.893 246.000 C 330.893 246.770,330.975 247.085,331.076 246.700 C 331.176 246.315,331.176 245.685,331.076 245.300 C 330.975 244.915,330.893 245.230,330.893 246.000 M328.011 257.787 C 327.743 258.109,327.593 258.580,327.677 258.832 C 327.761 259.084,328.045 258.820,328.307 258.245 C 328.840 257.074,328.737 256.912,328.011 257.787 M122.032 263.174 C 122.014 263.490,121.600 264.210,121.111 264.774 L 120.223 265.800 121.359 264.743 C 121.984 264.162,122.398 263.442,122.279 263.143 C 122.105 262.705,122.057 262.711,122.032 263.174 M321.653 266.640 C 319.295 269.068,319.702 269.143,322.200 266.740 C 323.300 265.682,324.020 264.822,323.800 264.828 C 323.580 264.835,322.614 265.650,321.653 266.640 M77.992 266.992 C 78.959 267.977,79.825 268.708,79.917 268.616 C 80.098 268.436,76.814 265.200,76.452 265.200 C 76.332 265.200,77.025 266.006,77.992 266.992 M356.520 294.800 C 356.520 296.010,356.595 296.505,356.687 295.900 C 356.778 295.295,356.778 294.305,356.687 293.700 C 356.595 293.095,356.520 293.590,356.520 294.800 M43.314 295.400 C 43.317 296.500,43.395 296.903,43.487 296.295 C 43.579 295.686,43.577 294.786,43.482 294.295 C 43.387 293.803,43.311 294.300,43.314 295.400 M63.600 328.000 C 63.930 328.213,64.470 328.388,64.800 328.388 C 65.333 328.388,65.333 328.345,64.800 328.000 C 64.470 327.787,63.930 327.612,63.600 327.612 C 63.067 327.612,63.067 327.655,63.600 328.000 M335.200 328.000 C 334.667 328.345,334.667 328.388,335.200 328.388 C 335.530 328.388,336.070 328.213,336.400 328.000 C 336.933 327.655,336.933 327.612,336.400 327.612 C 336.070 327.612,335.530 327.787,335.200 328.000 M70.305 328.283 C 70.802 328.379,71.522 328.375,71.905 328.275 C 72.287 328.175,71.880 328.096,71.000 328.101 C 70.120 328.105,69.807 328.187,70.305 328.283 M164.900 328.300 C 184.205 328.357,215.795 328.357,235.100 328.300 C 254.405 328.243,238.610 328.196,200.000 328.196 C 161.390 328.196,145.595 328.243,164.900 328.300 M328.305 328.283 C 328.802 328.379,329.522 328.375,329.905 328.275 C 330.287 328.175,329.880 328.096,329.000 328.101 C 328.120 328.105,327.807 328.187,328.305 328.283 M73.300 328.676 C 73.685 328.776,74.315 328.776,74.700 328.676 C 75.085 328.575,74.770 328.493,74.000 328.493 C 73.230 328.493,72.915 328.575,73.300 328.676 M325.300 328.676 C 325.685 328.776,326.315 328.776,326.700 328.676 C 327.085 328.575,326.770 328.493,326.000 328.493 C 325.230 328.493,324.915 328.575,325.300 328.676 M324.832 335.625 C 324.814 335.969,325.385 336.779,326.100 337.425 L 327.400 338.600 326.350 337.400 C 325.772 336.740,325.202 335.930,325.081 335.600 C 324.893 335.083,324.859 335.087,324.832 335.625 M135.717 337.897 C 137.211 337.974,139.551 337.974,140.917 337.896 C 142.282 337.818,141.060 337.755,138.200 337.755 C 135.340 337.756,134.222 337.820,135.717 337.897 M258.900 337.897 C 260.385 337.974,262.815 337.974,264.300 337.897 C 265.785 337.820,264.570 337.757,261.600 337.757 C 258.630 337.757,257.415 337.820,258.900 337.897 M55.632 358.778 C 55.614 359.096,55.109 359.906,54.509 360.578 L 53.418 361.800 54.757 360.544 C 55.500 359.848,56.000 359.046,55.880 358.744 C 55.705 358.306,55.657 358.313,55.632 358.778 M109.084 372.861 C 109.478 373.017,111.780 373.132,114.200 373.117 C 119.439 373.086,118.698 372.885,112.684 372.707 C 110.311 372.636,108.691 372.706,109.084 372.861 M285.800 372.800 L 281.000 373.039 285.600 373.091 C 288.130 373.120,290.560 372.989,291.000 372.800 C 291.440 372.611,291.530 372.480,291.200 372.509 C 290.870 372.537,288.440 372.669,285.800 372.800 M396.400 422.664 C 396.400 422.882,396.895 423.497,397.500 424.030 L 398.600 425.000 397.600 423.800 C 397.050 423.140,396.555 422.525,396.500 422.433 C 396.445 422.342,396.400 422.445,396.400 422.664 M2.705 427.483 C 3.202 427.579,3.922 427.575,4.305 427.475 C 4.687 427.375,4.280 427.296,3.400 427.301 C 2.520 427.305,2.207 427.387,2.705 427.483 M395.905 427.483 C 396.402 427.579,397.122 427.575,397.505 427.475 C 397.887 427.375,397.480 427.296,396.600 427.301 C 395.720 427.305,395.407 427.387,395.905 427.483 " stroke="none" fill="#848484" fill-rule="evenodd"></path><path d="M125.500 0.299 C 128.635 0.367,133.765 0.367,136.900 0.299 C 140.035 0.232,137.470 0.176,131.200 0.176 C 124.930 0.176,122.365 0.232,125.500 0.299 M279.927 0.300 C 284.837 0.363,292.757 0.363,297.527 0.300 C 302.297 0.236,298.280 0.184,288.600 0.184 C 278.920 0.184,275.017 0.236,279.927 0.300 M310.627 1.555 C 311.052 1.944,313.529 2.596,313.154 2.220 C 313.019 2.086,312.311 1.804,311.581 1.595 C 310.851 1.385,310.422 1.368,310.627 1.555 M62.581 16.100 L 61.000 17.800 62.700 16.219 C 64.281 14.748,64.584 14.400,64.281 14.400 C 64.216 14.400,63.451 15.165,62.581 16.100 M344.749 25.800 C 344.965 26.240,345.434 26.960,345.793 27.400 L 346.444 28.200 346.051 27.400 C 345.835 26.960,345.366 26.240,345.007 25.800 L 344.356 25.000 344.749 25.800 M173.100 35.900 C 187.895 35.958,212.105 35.958,226.900 35.900 C 241.695 35.842,229.590 35.794,200.000 35.794 C 170.410 35.794,158.305 35.842,173.100 35.900 M354.806 54.433 C 354.809 54.965,354.989 55.670,355.206 56.000 C 355.482 56.422,355.523 56.185,355.342 55.200 C 355.025 53.475,354.798 53.149,354.806 54.433 M44.629 55.029 C 44.481 55.615,44.451 56.184,44.561 56.294 C 44.671 56.404,44.881 56.015,45.029 55.429 C 45.176 54.842,45.206 54.273,45.096 54.163 C 44.986 54.053,44.776 54.442,44.629 55.029 M44.493 58.000 C 44.493 58.770,44.575 59.085,44.676 58.700 C 44.776 58.315,44.776 57.685,44.676 57.300 C 44.575 56.915,44.493 57.230,44.493 58.000 M175.872 61.900 C 182.071 61.962,192.331 61.962,198.672 61.900 C 205.012 61.838,199.940 61.787,187.400 61.787 C 174.860 61.787,169.672 61.838,175.872 61.900 M44.109 63.600 C 44.109 64.590,44.187 64.995,44.282 64.500 C 44.378 64.005,44.378 63.195,44.282 62.700 C 44.187 62.205,44.109 62.610,44.109 63.600 M118.000 62.400 C 118.806 62.921,122.122 62.921,121.800 62.400 C 121.664 62.180,120.618 62.003,119.476 62.006 C 117.988 62.011,117.570 62.122,118.000 62.400 M273.000 62.400 C 272.695 62.893,276.253 62.893,277.400 62.400 C 277.967 62.157,277.477 62.048,275.724 62.028 C 274.362 62.013,273.136 62.180,273.000 62.400 M355.693 63.200 C 355.693 63.970,355.775 64.285,355.876 63.900 C 355.976 63.515,355.976 62.885,355.876 62.500 C 355.775 62.115,355.693 62.430,355.693 63.200 M286.000 62.800 C 286.000 63.020,286.270 63.200,286.600 63.200 C 286.930 63.200,287.200 63.020,287.200 62.800 C 287.200 62.580,286.930 62.400,286.600 62.400 C 286.270 62.400,286.000 62.580,286.000 62.800 M103.675 65.073 C 102.726 65.409,102.022 65.755,102.110 65.843 C 102.320 66.053,104.891 65.190,105.380 64.745 C 105.855 64.314,105.784 64.327,103.675 65.073 M43.701 68.600 C 43.705 69.480,43.787 69.793,43.883 69.295 C 43.979 68.798,43.975 68.078,43.875 67.695 C 43.775 67.313,43.696 67.720,43.701 68.600 M356.101 68.600 C 356.105 69.480,356.187 69.793,356.283 69.295 C 356.379 68.798,356.375 68.078,356.275 67.695 C 356.175 67.313,356.096 67.720,356.101 68.600 M43.728 74.400 C 43.728 75.830,43.801 76.415,43.889 75.700 C 43.978 74.985,43.978 73.815,43.889 73.100 C 43.801 72.385,43.728 72.970,43.728 74.400 M88.581 74.900 L 87.000 76.600 88.700 75.019 C 89.635 74.149,90.400 73.384,90.400 73.319 C 90.400 73.016,90.052 73.319,88.581 74.900 M311.183 74.900 C 312.164 75.945,313.019 76.800,313.083 76.800 C 313.384 76.800,313.066 76.441,311.300 74.783 L 309.400 73.000 311.183 74.900 M43.363 91.600 C 43.363 95.230,43.423 96.715,43.498 94.900 C 43.572 93.085,43.572 90.115,43.498 88.300 C 43.423 86.485,43.363 87.970,43.363 91.600 M356.564 92.600 C 356.563 96.340,356.623 97.924,356.697 96.120 C 356.771 94.315,356.772 91.255,356.698 89.320 C 356.625 87.384,356.564 88.860,356.564 92.600 M325.246 105.032 C 325.441 106.078,325.699 107.032,325.819 107.152 C 326.156 107.489,325.538 103.844,325.194 103.465 C 325.027 103.281,325.050 103.986,325.246 105.032 M325.634 108.000 C 325.646 108.330,325.811 108.960,326.000 109.400 L 326.344 110.200 326.366 109.400 C 326.378 108.960,326.213 108.330,326.000 108.000 C 325.655 107.467,325.615 107.467,325.634 108.000 M73.849 108.615 C 73.712 108.973,73.615 109.566,73.634 109.933 C 73.653 110.300,73.827 110.069,74.021 109.420 C 74.398 108.158,74.265 107.533,73.849 108.615 M326.034 111.400 C 326.072 112.766,326.738 114.042,326.766 112.800 C 326.778 112.250,326.613 111.530,326.400 111.200 C 326.080 110.705,326.016 110.740,326.034 111.400 M73.449 112.615 C 73.312 112.973,73.216 113.656,73.236 114.133 C 73.262 114.747,73.385 114.608,73.659 113.656 C 74.057 112.272,73.894 111.458,73.449 112.615 M326.451 119.200 C 326.448 119.970,326.595 121.320,326.777 122.200 C 327.108 123.798,327.108 123.798,327.126 121.600 C 327.136 120.390,326.989 119.040,326.800 118.600 C 326.521 117.950,326.455 118.063,326.451 119.200 M73.073 118.953 C 72.923 119.345,72.823 120.776,72.851 122.133 L 72.901 124.600 73.257 121.821 C 73.627 118.942,73.548 117.716,73.073 118.953 M72.843 157.233 C 72.867 161.505,73.029 166.080,73.204 167.400 C 73.382 168.749,73.429 165.421,73.310 159.800 C 73.194 154.300,73.032 149.725,72.950 149.633 C 72.867 149.542,72.820 152.962,72.843 157.233 M326.653 160.719 C 326.462 165.405,326.401 169.334,326.518 169.451 C 326.945 169.878,327.243 164.437,327.123 158.400 L 327.000 152.200 326.653 160.719 M322.175 176.100 L 321.000 177.400 322.300 176.225 C 323.015 175.579,323.600 174.994,323.600 174.925 C 323.600 174.616,323.270 174.888,322.175 176.100 M81.200 178.597 C 81.200 178.868,84.449 180.484,84.630 180.303 C 84.714 180.219,83.976 179.759,82.991 179.281 C 82.006 178.802,81.200 178.494,81.200 178.597 M317.102 179.138 C 316.278 179.502,315.603 179.939,315.602 180.108 C 315.601 180.278,316.320 180.049,317.200 179.600 C 318.080 179.151,318.800 178.697,318.800 178.592 C 318.800 178.486,318.755 178.417,318.700 178.438 C 318.645 178.460,317.926 178.775,317.102 179.138 M97.600 216.400 C 97.600 216.620,98.140 216.800,98.800 216.800 C 99.460 216.800,100.000 216.620,100.000 216.400 C 100.000 216.180,99.460 216.000,98.800 216.000 C 98.140 216.000,97.600 216.180,97.600 216.400 M143.686 220.500 L 143.800 224.600 200.000 224.600 L 256.200 224.600 256.314 220.500 C 256.387 217.868,256.280 216.400,256.014 216.400 C 255.756 216.400,255.600 217.910,255.600 220.400 L 255.600 224.400 200.000 224.400 L 144.400 224.400 144.400 220.400 C 144.400 217.910,144.244 216.400,143.986 216.400 C 143.720 216.400,143.613 217.868,143.686 220.500 M109.295 218.220 C 109.458 218.387,110.358 218.867,111.295 219.285 C 112.233 219.704,112.820 219.865,112.600 219.644 C 112.380 219.423,111.480 218.943,110.600 218.579 C 109.720 218.214,109.133 218.053,109.295 218.220 M77.978 224.700 L 76.600 226.200 78.100 224.822 C 79.496 223.538,79.784 223.200,79.478 223.200 C 79.412 223.200,78.737 223.875,77.978 224.700 M321.800 224.800 C 322.659 225.680,323.452 226.400,323.562 226.400 C 323.672 226.400,323.059 225.680,322.200 224.800 C 321.341 223.920,320.548 223.200,320.438 223.200 C 320.328 223.200,320.941 223.920,321.800 224.800 M274.414 233.173 C 274.187 233.598,273.809 234.453,273.575 235.073 C 272.953 236.720,273.810 235.681,274.542 233.900 C 275.194 232.316,275.114 231.866,274.414 233.173 M69.829 237.554 C 69.058 238.801,68.467 248.862,69.106 249.858 C 69.268 250.110,69.418 248.040,69.440 245.258 C 69.463 242.476,69.673 239.525,69.908 238.700 C 70.319 237.257,70.288 236.810,69.829 237.554 M127.206 245.676 C 127.210 248.228,127.334 249.211,127.600 248.800 C 128.112 248.007,128.112 242.517,127.600 242.200 C 127.344 242.042,127.202 243.294,127.206 245.676 M330.846 248.667 C 330.821 248.924,330.684 249.464,330.541 249.867 C 330.340 250.436,330.394 250.497,330.779 250.142 C 331.052 249.891,331.189 249.351,331.084 248.942 C 330.979 248.534,330.872 248.410,330.846 248.667 M330.200 252.000 C 330.048 252.691,330.007 253.341,330.109 253.442 C 330.211 253.544,330.409 253.053,330.550 252.350 C 330.691 251.647,330.731 250.998,330.641 250.908 C 330.550 250.817,330.352 251.309,330.200 252.000 M69.772 253.800 C 69.929 254.460,70.229 255.176,70.439 255.391 C 70.650 255.606,70.610 255.156,70.351 254.391 C 69.746 252.600,69.405 252.252,69.772 253.800 M274.200 258.400 C 274.541 259.060,274.911 259.600,275.021 259.600 C 275.131 259.600,274.941 259.060,274.600 258.400 C 274.259 257.740,273.889 257.200,273.779 257.200 C 273.669 257.200,273.859 257.740,274.200 258.400 M325.292 263.029 C 324.797 263.783,324.472 264.400,324.569 264.400 C 324.847 264.400,326.504 261.971,326.339 261.806 C 326.257 261.724,325.786 262.274,325.292 263.029 M119.600 266.600 C 118.628 267.590,117.923 268.400,118.033 268.400 C 118.143 268.400,119.028 267.590,120.000 266.600 C 120.972 265.610,121.677 264.800,121.567 264.800 C 121.457 264.800,120.572 265.610,119.600 266.600 M77.600 267.000 C 78.346 267.770,79.047 268.400,79.157 268.400 C 79.267 268.400,78.746 267.770,78.000 267.000 C 77.254 266.230,76.553 265.600,76.443 265.600 C 76.333 265.600,76.854 266.230,77.600 267.000 M279.200 265.725 C 279.200 265.794,279.785 266.379,280.500 267.025 L 281.800 268.200 280.625 266.900 C 279.530 265.688,279.200 265.416,279.200 265.725 M321.978 267.100 L 320.600 268.600 322.100 267.222 C 323.496 265.938,323.784 265.600,323.478 265.600 C 323.412 265.600,322.737 266.275,321.978 267.100 M143.772 267.329 C 143.660 267.621,143.620 269.557,143.684 271.630 L 143.800 275.400 200.114 275.501 L 256.427 275.603 256.314 271.301 L 256.200 267.000 200.088 266.899 C 153.729 266.815,143.941 266.890,143.772 267.329 M255.673 271.199 L 255.547 275.200 200.000 275.200 L 144.453 275.200 144.327 271.199 L 144.200 267.198 200.000 267.198 L 255.800 267.198 255.673 271.199 M96.300 275.096 C 97.675 275.174,99.925 275.174,101.300 275.096 C 102.675 275.018,101.550 274.954,98.800 274.954 C 96.050 274.954,94.925 275.018,96.300 275.096 M298.700 275.096 C 300.075 275.174,302.325 275.174,303.700 275.096 C 305.075 275.018,303.950 274.954,301.200 274.954 C 298.450 274.954,297.325 275.018,298.700 275.096 M356.558 285.000 C 356.558 288.080,356.621 289.287,356.697 287.682 C 356.773 286.078,356.773 283.558,356.696 282.082 C 356.619 280.607,356.557 281.920,356.558 285.000 M43.355 286.200 C 43.356 289.060,43.420 290.178,43.497 288.683 C 43.574 287.189,43.574 284.849,43.496 283.483 C 43.418 282.118,43.355 283.340,43.355 286.200 M43.714 300.200 C 43.717 301.300,43.795 301.703,43.887 301.095 C 43.979 300.486,43.977 299.586,43.882 299.095 C 43.787 298.603,43.711 299.100,43.714 300.200 M44.101 308.600 C 44.105 309.480,44.187 309.793,44.283 309.295 C 44.379 308.798,44.375 308.078,44.275 307.695 C 44.175 307.313,44.096 307.720,44.101 308.600 M65.200 328.000 C 65.993 328.513,67.717 328.513,67.400 328.000 C 67.264 327.780,66.578 327.603,65.876 327.606 C 64.905 327.611,64.743 327.705,65.200 328.000 M332.600 328.000 C 332.283 328.513,334.007 328.513,334.800 328.000 C 335.257 327.705,335.095 327.611,334.124 327.606 C 333.422 327.603,332.736 327.780,332.600 328.000 M75.000 328.400 C 76.859 328.873,79.132 328.873,78.400 328.400 C 78.070 328.187,76.900 328.031,75.800 328.053 C 74.060 328.089,73.956 328.134,75.000 328.400 M321.600 328.400 C 320.868 328.873,323.141 328.873,325.000 328.400 C 326.044 328.134,325.940 328.089,324.200 328.053 C 323.100 328.031,321.930 328.187,321.600 328.400 M128.600 338.057 C 129.920 338.198,138.380 338.302,147.400 338.289 C 156.420 338.276,163.170 338.211,162.400 338.144 C 159.545 337.895,126.289 337.810,128.600 338.057 M253.000 338.000 L 236.200 338.213 252.600 338.263 C 261.620 338.291,270.080 338.179,271.400 338.015 C 273.772 337.721,273.777 337.718,271.800 337.752 C 270.700 337.771,262.240 337.883,253.000 338.000 M330.800 343.464 C 330.800 343.682,331.295 344.297,331.900 344.830 L 333.000 345.800 332.000 344.600 C 331.450 343.940,330.955 343.325,330.900 343.233 C 330.845 343.142,330.800 343.245,330.800 343.464 M67.634 344.953 L 66.669 346.200 67.813 345.112 C 68.443 344.514,68.877 343.953,68.779 343.865 C 68.680 343.777,68.165 344.267,67.634 344.953 M287.130 362.796 C 287.498 363.674,287.939 364.394,288.108 364.396 C 288.278 364.398,288.049 363.680,287.600 362.800 C 286.548 360.738,286.264 360.736,287.130 362.796 M111.990 363.827 C 111.775 364.392,111.397 365.247,111.151 365.727 C 110.856 366.300,110.849 366.462,111.130 366.200 C 111.644 365.720,112.902 362.800,112.595 362.800 C 112.477 362.800,112.205 363.262,111.990 363.827 M49.355 367.081 C 48.507 368.116,48.022 368.834,48.277 368.676 C 48.821 368.340,51.355 365.200,51.082 365.200 C 50.980 365.200,50.203 366.047,49.355 367.081 M291.444 371.800 C 291.773 373.271,292.002 373.590,291.994 372.567 C 291.991 372.145,291.805 371.530,291.582 371.200 C 291.285 370.762,291.248 370.924,291.444 371.800 M134.400 373.248 C 136.050 373.384,165.570 373.495,200.000 373.495 C 234.430 373.495,263.950 373.384,265.600 373.248 C 267.250 373.111,237.730 373.000,200.000 373.000 C 162.270 373.000,132.750 373.111,134.400 373.248 M20.434 402.153 L 19.469 403.400 20.613 402.312 C 21.243 401.714,21.677 401.153,21.579 401.065 C 21.480 400.977,20.965 401.467,20.434 402.153 M91.062 405.900 C 90.960 406.065,139.982 406.200,200.000 406.200 C 260.018 406.200,309.040 406.065,308.938 405.900 C 308.836 405.735,259.814 405.600,200.000 405.600 C 140.186 405.600,91.164 405.735,91.062 405.900 M9.700 427.497 C 11.185 427.574,13.615 427.574,15.100 427.497 C 16.585 427.420,15.370 427.357,12.400 427.357 C 9.430 427.357,8.215 427.420,9.700 427.497 M384.900 427.497 C 386.385 427.574,388.815 427.574,390.300 427.497 C 391.785 427.420,390.570 427.357,387.600 427.357 C 384.630 427.357,383.415 427.420,384.900 427.497 " stroke="none" fill="#595959" fill-rule="evenodd"></path><path d="M117.305 0.287 C 117.914 0.379,118.814 0.377,119.305 0.282 C 119.797 0.187,119.300 0.111,118.200 0.114 C 117.100 0.117,116.697 0.195,117.305 0.287 M121.800 62.400 C 121.936 62.620,122.307 62.800,122.624 62.800 C 122.941 62.800,123.200 62.620,123.200 62.400 C 123.200 62.180,122.829 62.000,122.376 62.000 C 121.923 62.000,121.664 62.180,121.800 62.400 M270.400 62.400 C 270.400 62.620,270.929 62.800,271.576 62.800 C 272.223 62.800,272.864 62.620,273.000 62.400 C 273.147 62.162,272.671 62.000,271.824 62.000 C 271.041 62.000,270.400 62.180,270.400 62.400 M43.293 84.000 C 43.293 84.770,43.375 85.085,43.476 84.700 C 43.576 84.315,43.576 83.685,43.476 83.300 C 43.375 82.915,43.293 83.230,43.293 84.000 M356.501 84.600 C 356.505 85.480,356.587 85.793,356.683 85.295 C 356.779 84.798,356.775 84.078,356.675 83.695 C 356.575 83.313,356.496 83.720,356.501 84.600 M326.914 125.400 C 326.917 126.500,326.995 126.903,327.087 126.295 C 327.179 125.686,327.177 124.786,327.082 124.295 C 326.987 123.803,326.911 124.300,326.914 125.400 M72.920 126.400 C 72.920 127.610,72.995 128.105,73.087 127.500 C 73.178 126.895,73.178 125.905,73.087 125.300 C 72.995 124.695,72.920 125.190,72.920 126.400 M72.937 146.600 C 72.939 148.360,73.009 149.030,73.093 148.089 C 73.178 147.149,73.177 145.709,73.091 144.889 C 73.005 144.070,72.936 144.840,72.937 146.600 M326.931 149.800 C 326.933 151.340,327.005 151.921,327.092 151.091 C 327.179 150.261,327.177 149.001,327.089 148.291 C 327.000 147.581,326.929 148.260,326.931 149.800 M73.324 158.600 C 73.326 159.920,73.401 160.412,73.490 159.693 C 73.579 158.974,73.577 157.894,73.486 157.293 C 73.395 156.692,73.322 157.280,73.324 158.600 M326.520 158.800 C 326.520 160.010,326.595 160.505,326.687 159.900 C 326.778 159.295,326.778 158.305,326.687 157.700 C 326.595 157.095,326.520 157.590,326.520 158.800 M356.493 291.600 C 356.493 292.370,356.575 292.685,356.676 292.300 C 356.776 291.915,356.776 291.285,356.676 290.900 C 356.575 290.515,356.493 290.830,356.493 291.600 M43.293 292.400 C 43.293 293.170,43.375 293.485,43.476 293.100 C 43.576 292.715,43.576 292.085,43.476 291.700 C 43.375 291.315,43.293 291.630,43.293 292.400 M350.575 321.700 L 349.400 323.000 350.700 321.825 C 351.415 321.179,352.000 320.594,352.000 320.525 C 352.000 320.216,351.670 320.488,350.575 321.700 M131.105 337.883 C 131.602 337.979,132.322 337.975,132.705 337.875 C 133.087 337.775,132.680 337.696,131.800 337.701 C 130.920 337.705,130.607 337.787,131.105 337.883 M267.505 337.883 C 268.002 337.979,268.722 337.975,269.105 337.875 C 269.487 337.775,269.080 337.696,268.200 337.701 C 267.320 337.705,267.007 337.787,267.505 337.883 M165.715 338.296 C 166.988 338.376,168.968 338.375,170.115 338.294 C 171.262 338.214,170.220 338.149,167.800 338.150 C 165.380 338.151,164.442 338.216,165.715 338.296 M230.115 338.296 C 231.388 338.376,233.368 338.375,234.515 338.294 C 235.662 338.214,234.620 338.149,232.200 338.150 C 229.780 338.151,228.842 338.216,230.115 338.296 M186.500 373.100 C 193.925 373.161,206.075 373.161,213.500 373.100 C 220.925 373.039,214.850 372.989,200.000 372.989 C 185.150 372.989,179.075 373.039,186.500 373.100 M5.300 427.476 C 5.685 427.576,6.315 427.576,6.700 427.476 C 7.085 427.375,6.770 427.293,6.000 427.293 C 5.230 427.293,4.915 427.375,5.300 427.476 M393.300 427.476 C 393.685 427.576,394.315 427.576,394.700 427.476 C 395.085 427.375,394.770 427.293,394.000 427.293 C 393.230 427.293,392.915 427.375,393.300 427.476 " stroke="none" fill="#747474" fill-rule="evenodd"></path></svg>
